<svg width="52" height="54" viewBox="0 0 52 54" fill="none" xmlns="http://www.w3.org/2000/svg">
<path d="M3.2203 14.2804C1.45791 13.2692 0.792421 11.0056 1.73389 9.22458C2.67535 7.44354 4.86727 6.81946 6.62967 7.83065L16.2975 13.3777C18.0599 14.3888 18.7254 16.6524 17.7839 18.4334C16.8424 20.2145 14.6505 20.8386 12.8881 19.8274L3.2203 14.2804Z" fill="#F7841F"/>
<path d="M35.5694 40.5967C33.8069 39.5854 33.1415 37.3219 34.083 35.5408C35.0244 33.7599 37.2162 33.1356 38.9787 34.1469L48.6464 39.694C50.409 40.705 51.0743 42.9687 50.1329 44.7496C49.1914 46.5308 46.9997 47.1547 45.2371 46.1437L35.5694 40.5967Z" fill="#2E9B4A"/>
<path d="M43.4841 5.11368C43.4841 3.19311 45.0662 1.63617 47.0178 1.63617C48.9694 1.63617 50.5515 3.19311 50.5515 5.11368V43.1556C50.5515 45.0761 48.9694 46.6331 47.0178 46.6331C45.0662 46.6331 43.4841 45.0761 43.4841 43.1556V5.11368Z" fill="#54BA5C"/>
<path d="M20.3207 27.6382C18.8011 28.7269 16.7392 28.3523 15.7152 26.801C14.6911 25.2497 15.0929 23.1096 16.6124 22.0208L44.5933 1.97151C46.1128 0.882681 48.1747 1.25751 49.1986 2.80871C50.2228 4.35992 49.8209 6.50007 48.3014 7.58889L20.3207 27.6382Z" fill="#2FA993"/>
<path d="M7.54053 49.1884C7.51936 50.9641 6.04546 52.3891 4.24086 52.3786C2.42802 52.3678 0.966209 50.9132 0.975816 49.1293L1.18136 10.9557C1.19206 8.96836 2.83189 7.36374 4.85138 7.36447V7.36583H4.99C6.66799 7.3658 8.02332 8.71532 8.00362 10.3665L7.54053 49.1884Z" fill="#F9961F"/>
<path d="M6.43212 51.7951C4.90232 52.8711 2.84236 52.479 1.83109 50.9186C0.81981 49.3583 1.24017 47.2209 2.76998 46.1449L31.2879 26.0817C32.8178 25.0054 34.8779 25.3978 35.8892 26.9581C36.9005 28.5182 36.4799 30.6556 34.95 31.7319L6.43212 51.7951Z" fill="#DD272E"/>
<path d="M22.7383 25.0892C22.7383 26.3164 21.4295 26.8423 19.3355 28.089C17.2414 29.3356 15.1473 26.9417 15.1473 25.0892C15.1473 23.2366 16.4579 21.544 18.2361 21.544C20.0142 21.544 22.7383 23.862 22.7383 25.0892Z" fill="#1E9582"/>
</svg>
